<svg width="755" height="961" viewBox="0 0 755 961" fill="none" xmlns="http://www.w3.org/2000/svg">
<circle cx="377.5" cy="375.5" r="245.5" fill="#FEFEFE"/>
<path d="M377.263 0C168.908 0 0 169.284 0 378.104C0 586.933 377.263 960.594 377.263 960.594C377.263 960.594 754.526 586.933 754.526 378.104C754.526 169.284 585.618 1e-06 377.263 0ZM377.263 621.375C242.442 621.375 133.152 512.085 133.152 377.263C133.152 242.442 242.442 133.152 377.263 133.152C512.085 133.152 621.375 242.442 621.375 377.263C621.375 512.085 512.085 621.375 377.263 621.375Z" fill="#38bdf8"/>
<path d="M297.166 367.645L285.254 348.29L318.014 331.91L322.482 349.782L340.354 343.826L335.886 328.934L370.877 322.978V339.358L388.005 340.846L390.981 321.486L425.233 327.442L419.277 342.334L435.657 349.782L441.613 333.402L474.372 346.802L463.2 367.65L477.348 373.606C477.348 373.606 503.657 332.908 504.152 331.914C372.37 246.046 256.967 331.914 256.967 331.914L282.279 376.577L297.166 367.645ZM382.049 494.216C409.538 490.804 415.261 471.17 416.31 458.48C416.521 451.032 413.152 435.215 396.937 427.209C398.429 427.703 388.005 366.158 388.005 366.158H372.37C372.37 366.158 363.438 426.714 364.178 427.209C343.08 434.162 344.818 458.476 344.818 458.476C344.818 458.476 342.336 489.748 382.049 494.216ZM381.284 442.126C383.335 442.126 385.366 442.529 387.261 443.314C389.156 444.098 390.877 445.248 392.328 446.698C393.778 448.148 394.929 449.87 395.714 451.764C396.499 453.659 396.903 455.69 396.903 457.741C396.904 459.791 396.5 461.822 395.715 463.717C394.931 465.612 393.781 467.334 392.331 468.784C390.881 470.234 389.159 471.385 387.265 472.17C385.37 472.955 383.339 473.359 381.289 473.359C377.147 473.36 373.174 471.715 370.245 468.787C367.316 465.859 365.67 461.887 365.67 457.745C365.669 453.603 367.314 449.631 370.242 446.701C373.171 443.772 377.143 442.126 381.284 442.126ZM409.673 426.313C421.289 436.588 423.973 450.664 423.762 458.032C422.468 473.529 415.439 497.496 381.669 501.664C332.893 496.207 335.941 458.028 335.941 458.028C335.941 458.028 334.546 438.537 347.802 426.625L233.139 427.209C233.139 427.209 255.724 526.481 372.37 538.891C509.858 527.973 526.487 425.721 526.487 425.721L409.673 426.313ZM380.557 183C272.003 183 184 271.003 184 379.557C184 488.112 272.003 576.115 380.557 576.115C489.116 576.115 577.115 488.112 577.115 379.557C577.115 271.003 489.116 183 380.557 183ZM381.284 567.162C277.27 567.162 192.953 482.845 192.953 378.83C192.953 274.815 277.27 190.495 381.284 190.495C485.299 190.495 569.616 274.811 569.616 378.83C569.62 482.845 485.299 567.162 381.284 567.162Z" fill="#10ACAE"/>
</svg>
